<?xml version="1.0" encoding="UTF-8" standalone="no"?>
<!-- Created with Inkscape (http://www.inkscape.org/) -->

<svg
   width="91.247337mm"
   height="22.700397mm"
   viewBox="0 0 91.247337 22.700398"
   version="1.1"
   id="svg1"
   xml:space="preserve"
   inkscape:version="1.4.2 (f4327f4, 2025-05-13)"
   sodipodi:docname="logo editor.svg"
   xmlns:inkscape="http://www.inkscape.org/namespaces/inkscape"
   xmlns:sodipodi="http://sodipodi.sourceforge.net/DTD/sodipodi-0.dtd"
   xmlns="http://www.w3.org/2000/svg"
   xmlns:svg="http://www.w3.org/2000/svg"><sodipodi:namedview
     id="namedview1"
     pagecolor="#ffffff"
     bordercolor="#000000"
     borderopacity="0.25"
     inkscape:showpageshadow="2"
     inkscape:pageopacity="0.0"
     inkscape:pagecheckerboard="0"
     inkscape:deskcolor="#d1d1d1"
     inkscape:document-units="mm"
     inkscape:zoom="2.8284271"
     inkscape:cx="175.71603"
     inkscape:cy="73.715882"
     inkscape:window-width="1920"
     inkscape:window-height="1009"
     inkscape:window-x="-8"
     inkscape:window-y="-8"
     inkscape:window-maximized="1"
     inkscape:current-layer="layer1"
     showguides="true"><sodipodi:guide
       position="73.221009,22.700398"
       orientation="0,-1"
       id="guide1"
       inkscape:locked="false" /><sodipodi:guide
       position="62.050962,9.3089168e-07"
       orientation="0,-1"
       id="guide2"
       inkscape:locked="false" /><sodipodi:guide
       position="91.247341,13.24452"
       orientation="1,0"
       id="guide3"
       inkscape:locked="false" /><sodipodi:guide
       position="-6.0523656e-13,4.5618105"
       orientation="1,0"
       id="guide4"
       inkscape:locked="false" /></sodipodi:namedview><defs
     id="defs1"><inkscape:path-effect
       effect="fillet_chamfer"
       id="path-effect641"
       is_visible="true"
       lpeversion="1"
       nodesatellites_param="F,0,0,1,0,0,0,1 @ F,0,0,1,0,0,0,1 @ F,0,0,1,0,0,0,1 @ F,0,0,1,0,0,0,1 @ F,0,0,1,0,0,0,1 @ F,0,0,1,0,0,0,1 @ F,0,0,1,0,0,0,1 @ F,0,0,1,0,0,0,1 @ F,0,0,1,0,0,0,1 @ F,0,0,1,0,0,0,1 @ F,0,0,1,0,0,0,1 @ F,0,0,1,0,0,0,1 @ F,0,0,1,0,0,0,1 @ F,0,0,1,0,0,0,1 @ F,0,0,1,0,0,0,1 @ F,0,0,1,0,0,0,1 @ F,0,0,1,0,0,0,1 @ F,0,0,1,0,0,0,1 @ F,0,0,1,0,0,0,1 @ F,0,0,1,0,0,0,1 @ F,0,0,1,0,0,0,1 @ F,0,0,1,0,0,0,1 @ F,0,0,1,0,0,0,1 @ F,0,0,1,0,0,0,1 @ F,0,0,1,0,0,0,1 @ F,0,0,1,0,0,0,1 @ F,0,0,1,0,0.70429572,0,1 @ F,0,0,1,0,0,0,1 @ F,0,0,1,0,0,0,1 @ F,0,0,1,0,0,0,1 @ F,0,0,1,0,0,0,1 @ F,0,0,1,0,0,0,1 @ F,0,0,1,0,0,0,1 @ F,0,0,1,0,0,0,1 @ F,0,0,1,0,0,0,1 @ F,0,0,1,0,0,0,1 @ F,0,0,1,0,0,0,1 @ F,0,0,1,0,0,0,1 @ F,0,0,1,0,2.1655633,0,1 @ F,0,0,1,0,0,0,1 @ F,0,0,1,0,0,0,1 @ F,0,0,1,0,0,0,1 @ F,0,0,1,0,0,0,1 @ F,0,0,1,0,0,0,1 @ F,0,0,1,0,0,0,1 @ F,0,0,1,0,0,0,1 @ F,0,0,1,0,0,0,1 @ F,0,0,1,0,0,0,1 @ F,0,0,1,0,0,0,1 @ F,0,0,1,0,0,0,1 @ F,0,0,1,0,0,0,1 @ F,0,0,1,0,0,0,1 @ F,0,0,1,0,0,0,1 @ F,0,0,1,0,0,0,1 @ F,0,0,1,0,0,0,1 @ F,0,0,1,0,0,0,1 @ F,0,0,1,0,0,0,1 @ F,0,0,1,0,0,0,1 @ F,0,0,1,0,0,0,1 @ F,0,0,1,0,0,0,1 @ F,0,0,1,0,0,0,1 @ F,0,0,1,0,0,0,1 @ F,0,0,1,0,0,0,1 | F,0,0,1,0,0,0,1 @ F,0,0,1,0,0,0,1 @ F,0,0,1,0,0,0,1 @ F,0,0,1,0,0,0,1 @ F,0,0,1,0,0,0,1 @ F,0,0,1,0,0,0,1 @ F,0,0,1,0,0,0,1 @ F,0,0,1,0,0,0,1 @ F,0,0,1,0,0,0,1 @ F,0,0,1,0,0,0,1 @ F,0,0,1,0,0,0,1 @ F,0,0,1,0,0,0,1"
       radius="0"
       unit="px"
       method="auto"
       mode="F"
       chamfer_steps="1"
       flexible="false"
       use_knot_distance="true"
       apply_no_radius="true"
       apply_with_radius="true"
       only_selected="false"
       hide_knots="false" /><inkscape:path-effect
       effect="fillet_chamfer"
       id="path-effect641-1"
       is_visible="true"
       lpeversion="1"
       nodesatellites_param="F,0,0,1,0,0,0,1 @ F,0,0,1,0,0,0,1 @ F,0,0,1,0,0,0,1 @ F,0,0,1,0,0,0,1 @ F,0,0,1,0,0,0,1 @ F,0,0,1,0,0,0,1 @ F,0,0,1,0,0,0,1 @ F,0,0,1,0,0,0,1 @ F,0,0,1,0,0,0,1 @ F,0,0,1,0,0,0,1 @ F,0,0,1,0,0,0,1 @ F,0,0,1,0,0,0,1 @ F,0,0,1,0,0,0,1 @ F,0,0,1,0,0,0,1 @ F,0,0,1,0,0,0,1 @ F,0,0,1,0,0,0,1 @ F,0,0,1,0,0,0,1 @ F,0,0,1,0,0,0,1 @ F,0,0,1,0,0,0,1 @ F,0,0,1,0,0,0,1 @ F,0,0,1,0,0,0,1 @ F,0,0,1,0,0,0,1 @ F,0,0,1,0,0,0,1 @ F,0,0,1,0,0,0,1 @ F,0,0,1,0,0,0,1 @ F,0,0,1,0,0,0,1 @ F,0,0,1,0,0.70429572,0,1 @ F,0,0,1,0,0,0,1 @ F,0,0,1,0,0,0,1 @ F,0,0,1,0,0,0,1 @ F,0,0,1,0,0,0,1 @ F,0,0,1,0,0,0,1 @ F,0,0,1,0,0,0,1 @ F,0,0,1,0,0,0,1 @ F,0,0,1,0,0,0,1 @ F,0,0,1,0,0,0,1 @ F,0,0,1,0,0,0,1 @ F,0,0,1,0,0,0,1 @ F,0,0,1,0,2.1655633,0,1 @ F,0,0,1,0,0,0,1 @ F,0,0,1,0,0,0,1 @ F,0,0,1,0,0,0,1 @ F,0,0,1,0,0,0,1 @ F,0,0,1,0,0,0,1 @ F,0,0,1,0,0,0,1 @ F,0,0,1,0,0,0,1 @ F,0,0,1,0,0,0,1 @ F,0,0,1,0,0,0,1 @ F,0,0,1,0,0,0,1 @ F,0,0,1,0,0,0,1 @ F,0,0,1,0,0,0,1 @ F,0,0,1,0,0,0,1 @ F,0,0,1,0,0,0,1 @ F,0,0,1,0,0,0,1 @ F,0,0,1,0,0,0,1 @ F,0,0,1,0,0,0,1 @ F,0,0,1,0,0,0,1 @ F,0,0,1,0,0,0,1 @ F,0,0,1,0,0,0,1 @ F,0,0,1,0,0,0,1 @ F,0,0,1,0,0,0,1 @ F,0,0,1,0,0,0,1 @ F,0,0,1,0,0,0,1 | F,0,0,1,0,0,0,1 @ F,0,0,1,0,0,0,1 @ F,0,0,1,0,0,0,1 @ F,0,0,1,0,0,0,1 @ F,0,0,1,0,0,0,1 @ F,0,0,1,0,0,0,1 @ F,0,0,1,0,0,0,1 @ F,0,0,1,0,0,0,1 @ F,0,0,1,0,0,0,1 @ F,0,0,1,0,0,0,1 @ F,0,0,1,0,0,0,1 @ F,0,0,1,0,0,0,1"
       radius="0"
       unit="px"
       method="auto"
       mode="F"
       chamfer_steps="1"
       flexible="false"
       use_knot_distance="true"
       apply_no_radius="true"
       apply_with_radius="true"
       only_selected="false"
       hide_knots="false" /></defs><g
     inkscape:label="Capa 1"
     inkscape:groupmode="layer"
     id="layer1"
     transform="translate(0,9.8980681e-4)"><g
       id="g635-1"
       transform="matrix(0.69328954,0,0,0.69328954,0.09416105,-43.232832)"><g
         id="g631-5"
         transform="matrix(0.70899413,0,0,0.70899413,-7.2255666,63.00598)"><path
           id="path630-2"
           style="fill:#6366f1;fill-opacity:1;stroke:none;stroke-width:0.30307;stroke-dasharray:none"
           d="M 9.9997285,5.0004804 V 9.909097 L 14.909396,5.0004804 Z m 4.9096675,0 V 29.545666 L 9.9997285,34.454283 V 39.36395 H 39.454582 L 19.818013,19.727381 V 14.818765 L 44.363198,39.36395 v -4.417649 h 6.839893 v 1.962815 L 57.127284,32.0005 51.203091,27.090832 v 1.963867 H 44.363198 V 24.635998 H 59.05856 v 1.963867 l 5.924192,-4.908616 -5.924192,-4.909668 v 1.963867 H 44.363198 V 14.818765 H 50.2548 v 1.962816 L 56.178992,11.872964 50.2548,6.9632963 v 1.9638671 h -5.891602 v -3.926683 z m 4.908617,4.9086166 h 19.636569 l -4.908617,4.909668 h -9.818284 z m 9.818284,9.818284 h 9.818285 l -4.908617,4.908617 z" /></g><g
         id="g634-7"><path
           id="path632-6"
           style="font-size:18.9349px;font-family:KIRANA;-inkscape-font-specification:KIRANA;fill:#6366f1;fill-opacity:1;stroke-width:0.914318"
           d="m 66.646308,62.358985 a 1.9202633,1.9202633 0 0 0 -1.806092,1.267623 l -2.350761,6.505029 h 1.46296 l 0.907439,-2.516125 h 3.530017 l 0.926558,2.516125 h 1.462959 l -2.367297,-6.506063 a 1.8940093,1.8940093 0 0 0 -1.765783,-1.266589 z m 8.73435,0 c -0.838732,0 -1.557258,0.298937 -2.155424,0.897103 -0.598166,0.598166 -0.897103,1.313374 -0.897103,2.145605 v 1.667599 c 0,0.845234 0.298937,1.567077 0.897103,2.165242 0.598166,0.598167 1.316692,0.897103 2.155424,0.897103 h 2.165243 c 0.838732,0 1.55674,-0.298936 2.154907,-0.897103 0.598166,-0.598165 0.897619,-1.320008 0.897619,-2.165242 v -1.521354 h -3.969266 v 0.01137 a 1.3640117,1.3640117 0 0 0 1.363741,1.36374 h 1.230416 v 0.146245 c 0,0.474632 -0.162736,0.874837 -0.487826,1.199927 -0.32509,0.318588 -0.721462,0.478007 -1.189591,0.478007 h -2.165243 c -0.468129,0 -0.865018,-0.159419 -1.190108,-0.478007 -0.32509,-0.32509 -0.487309,-0.725295 -0.487309,-1.199927 v -1.667599 c 0,-0.461628 0.162219,-0.854682 0.487309,-1.179773 0.32509,-0.331592 0.721979,-0.497644 1.190108,-0.497644 h 2.165243 c 0.3641,0 0.689054,0.104068 0.975134,0.312126 0.286079,0.201556 0.487581,0.468359 0.604614,0.799951 l 1.37511,-0.165881 c -0.162544,-0.669686 -0.520147,-1.222676 -1.072802,-1.658297 -0.552654,-0.435621 -1.179862,-0.65319 -1.882056,-0.65319 z m 7.672919,0 v 7.772652 h 6.65179 a 1.3848841,1.3848841 0 0 0 -1.38493,-1.384411 h -3.89175 v -1.824179 h 2.59726 v -1.375109 h -2.59726 v -1.823662 h 3.89692 a 1.3723853,1.3723853 0 0 0 1.37976,-1.365291 z m 9.10694,0 v 7.792289 h 1.37511 v -5.656502 c 1.34397,1.543575 2.68833,3.087149 4.03231,4.630725 0.49329,0.566556 1.50187,1.025777 2.25309,1.025777 h 0.015 v -7.792289 h -1.37511 v 5.695777 c -1.34505,-1.54481 -2.70392,-3.092187 -4.04006,-4.643645 -0.49022,-0.569218 -1.4942,-1.041018 -2.24534,-1.051615 z m 11.604463,0 a 1.4304817,1.4304817 0 0 0 -1.49294,1.365291 h 2.24844 a 0.9501728,0.9501728 0 0 1 0.95033,0.95033 v 5.457031 h 1.38493 v -6.407361 h 1.5074 a 1.531721,1.531721 0 0 0 1.68155,-1.365291 z m 10.75799,0 c -0.55057,0 -1.02674,0.197612 -1.42833,0.592729 -0.39512,0.395116 -0.59273,0.871287 -0.59273,1.428336 v 0.505396 c 0,0.55705 0.19761,1.032703 0.59273,1.42782 0.40159,0.395116 0.87776,0.592729 1.42833,0.592729 h 3.92535 c 0.18784,0 0.34305,0.06476 0.46612,0.194303 0.12955,0.129546 0.1943,0.285273 0.1943,0.466638 v 0.514697 c 0,0.181365 -0.0648,0.333751 -0.1943,0.45682 -0.12307,0.123069 -0.27828,0.184485 -0.46612,0.184485 h -3.92535 c -0.18136,0 -0.33709,-0.06142 -0.46663,-0.184485 -0.12307,-0.123069 -0.18449,-0.275455 -0.18449,-0.45682 v -0.699182 h -1.36994 v 0.699182 c 0,0.544095 0.19761,1.016925 0.59273,1.418518 0.40159,0.401594 0.87776,0.602548 1.42833,0.602548 h 3.92535 c 0.55704,0 1.03322,-0.200954 1.42833,-0.602548 0.39512,-0.401593 0.59221,-0.874423 0.59221,-1.418518 v -0.514697 c 0,-0.55705 -0.19709,-1.03322 -0.59221,-1.428337 -0.39511,-0.401593 -0.87129,-0.602547 -1.42833,-0.602547 h -2.90525 v 0.0098 h -1.0201 c -0.18136,0 -0.33709,-0.06142 -0.46663,-0.184485 -0.12307,-0.129547 -0.18449,-0.288098 -0.18449,-0.47594 v -0.505396 c 0,-0.181365 0.0614,-0.33375 0.18449,-0.456819 0.12954,-0.129547 0.28527,-0.194304 0.46663,-0.194304 h 3.92535 c 0.18784,0 0.34305,0.06476 0.46612,0.194304 0.2851,0.315194 0.18529,0.742276 0.1943,1.136881 h 1.36012 v -0.680062 c 0,-0.557049 -0.19709,-1.03322 -0.59221,-1.428336 -0.39511,-0.395117 -0.87129,-0.592729 -1.42833,-0.592729 z m -47.898366,1.365291 c 0.710309,0 1.267623,2.516126 1.267623,2.516126 h -2.535246 c 0,0 0.557313,-2.516126 1.267623,-2.516126 z" /><path
           id="path633-1"
           style="font-size:18.0212px;font-family:KIRANA;-inkscape-font-specification:KIRANA;fill:#6366f1;fill-opacity:1;stroke-width:1.68949"
           d="m 74.075065,23.381002 c -2.250541,-1.69e-4 -4.075087,1.824145 -4.075203,4.074686 v 8.700761 c 1.403304,-3.1e-5 2.540899,-1.137626 2.54093,-2.54093 v -1.800923 h 5.635832 v -2.540931 h -5.635832 v -1.479496 c 4.7e-5,-1.044179 0.846661,-1.890562 1.89084,-1.890324 h 13.21108 c 0.234897,-2.8e-5 0.425325,0.1904 0.425297,0.425297 v 5.2002 c 4e-5,2.557643 2.069476,4.633087 4.627108,4.640543 l 14.333493,0.05064 h 0.001 c 0.0406,0 0.0815,10e-4 0.12248,10e-4 h 0.25476 l 2.30374,0.0067 v -0.0067 h 4.03386 c 1.53781,0 2.85983,-0.552479 3.96513,-1.65778 1.1053,-1.1053 1.65778,-2.438953 1.65778,-4.00079 v -1.559594 c 0,-1.175202 -0.32291,-2.223965 -0.96842,-3.146578 h 8.37159 1.42415 a 0.76556776,0.76556776 42.612977 0 1 0.76292,0.701852 l 0.5771,6.910086 c 0.38404,1.548336 1.75592,2.64876 3.3507,2.687691 1.65566,9.2e-5 3.1168,-1.082177 3.59926,-2.665987 l 2.22261,-7.299296 c 0.13415,-0.442142 0.78277,-0.36226 0.80563,0.09922 l 0.36277,7.161837 c 0.0673,1.50625 1.30347,2.695376 2.8112,2.704227 1.62458,-6.1e-5 3.07469,-1.018816 3.62562,-2.547131 l 2.78605,-7.727622 0.90142,-0.02477 1.6e-4,-2.475925 -0.73656,0 a 3.08736,3.08736 144.95307 0 0 -2.90289,2.036174 l -2.64128,7.294006 c -0.15201,0.419632 -0.55052,0.699148 -0.99684,0.699182 h -0.0382 c -0.41385,8.8e-5 -0.75251,-0.329407 -0.76377,-0.743107 l -0.1819,-6.804236 c -0.0367,-1.370661 -1.07809,-2.482019 -2.32648,-2.482019 -1.30106,0 -2.68643,1.001629 -3.09438,2.237073 l -2.33991,7.086389 c -0.13933,0.421478 -0.53329,0.706059 -0.9772,0.7059 h -0.0382 c -0.43738,-1.01e-4 -0.81893,-0.296958 -0.92656,-0.720886 l -0.72996,-6.282821 c -0.33953,-2.314931 -1.72617,-3.02555 -4.53538,-3.025622 h -13.0266 -6.59236 c -1.54982,0 -2.8774,0.552479 -3.9827,1.65778 -1.10529,1.1053 -1.65778,2.426807 -1.65778,3.964616 v 1.559594 c 0,1.159321 0.30464,2.192808 0.91364,3.100586 l -9.730676,-0.04134 c -1.152695,-0.0037 -2.085188,-0.939161 -2.085144,-2.091862 v -5.62963 C 90.609138,24.509096 89.480895,23.381 88.089247,23.381 h -0.02119 z m 33.077055,2.522843 h 6.59236 c 0.85301,0 1.58003,0.306603 2.18074,0.919324 0.61272,0.600707 0.91933,1.327226 0.91933,2.180229 v 1.559594 c 0,0.877032 -0.30661,1.615696 -0.91933,2.216403 -0.60071,0.588692 -1.32773,0.88315 -2.18074,0.88315 h -6.59236 c -0.86501,0 -1.59761,-0.294458 -2.19832,-0.88315 -0.60071,-0.600707 -0.90124,-1.339371 -0.90124,-2.216403 v -1.559594 c 0,-0.853003 0.30053,-1.579522 0.90124,-2.180229 0.60071,-0.612721 1.33331,-0.919324 2.19832,-0.919324 z"
           sodipodi:nodetypes="cccccccccccccccsscccssssccccccccccccccccssccsccssccccssssccccsccsscsscsscsscs"
           inkscape:path-effect="#path-effect641-1"
           inkscape:original-d="m 74.075065,23.381002 c -2.250541,-1.69e-4 -4.075087,1.824145 -4.075203,4.074686 v 8.700761 c 1.403304,-3.1e-5 2.540899,-1.137626 2.54093,-2.54093 v -1.800923 h 5.635832 v -2.540931 h -5.635832 v -1.479496 c 4.7e-5,-1.044179 0.846661,-1.890562 1.89084,-1.890324 h 13.21108 c 0.234897,-2.8e-5 0.425325,0.1904 0.425297,0.425297 v 5.2002 c 4e-5,2.557643 2.069476,4.633087 4.627108,4.640543 l 14.333493,0.05064 h 0.001 c 0.0406,0 0.0815,10e-4 0.12248,10e-4 h 0.25476 l 2.30374,0.0067 v -0.0067 h 4.03386 c 1.53781,0 2.85983,-0.552479 3.96513,-1.65778 1.1053,-1.1053 1.65778,-2.438953 1.65778,-4.00079 v -1.559594 c 0,-1.175202 -0.32291,-2.223965 -0.96842,-3.146578 h 8.37159 2.12845 l 0.63572,7.611938 c 0.38404,1.548336 1.75592,2.64876 3.3507,2.687691 1.65566,9.2e-5 3.1168,-1.082177 3.59926,-2.665987 l 2.22261,-7.299296 c 0.13415,-0.442142 0.78277,-0.36226 0.80563,0.09922 l 0.36277,7.161837 c 0.0673,1.50625 1.30347,2.695376 2.8112,2.704227 1.62458,-6.1e-5 3.07469,-1.018816 3.62562,-2.547131 l 2.78605,-7.727622 0.90142,-0.02477 1.6e-4,-2.475925 H 147.098 l -3.37861,9.33018 c -0.15201,0.419632 -0.55052,0.699148 -0.99684,0.699182 h -0.0382 c -0.41385,8.8e-5 -0.75251,-0.329407 -0.76377,-0.743107 l -0.1819,-6.804236 c -0.0367,-1.370661 -1.07809,-2.482019 -2.32648,-2.482019 -1.30106,0 -2.68643,1.001629 -3.09438,2.237073 l -2.33991,7.086389 c -0.13933,0.421478 -0.53329,0.706059 -0.9772,0.7059 h -0.0382 c -0.43738,-1.01e-4 -0.81893,-0.296958 -0.92656,-0.720886 l -0.72996,-6.282821 c -0.33953,-2.314931 -1.72617,-3.02555 -4.53538,-3.025622 h -13.0266 -6.59236 c -1.54982,0 -2.8774,0.552479 -3.9827,1.65778 -1.10529,1.1053 -1.65778,2.426807 -1.65778,3.964616 v 1.559594 c 0,1.159321 0.30464,2.192808 0.91364,3.100586 l -9.730676,-0.04134 c -1.152695,-0.0037 -2.085188,-0.939161 -2.085144,-2.091862 v -5.62963 C 90.609138,24.509096 89.480895,23.381 88.089247,23.381 h -0.02119 z m 33.077055,2.522843 h 6.59236 c 0.85301,0 1.58003,0.306603 2.18074,0.919324 0.61272,0.600707 0.91933,1.327226 0.91933,2.180229 v 1.559594 c 0,0.877032 -0.30661,1.615696 -0.91933,2.216403 -0.60071,0.588692 -1.32773,0.88315 -2.18074,0.88315 h -6.59236 c -0.86501,0 -1.59761,-0.294458 -2.19832,-0.88315 -0.60071,-0.600707 -0.90124,-1.339371 -0.90124,-2.216403 v -1.559594 c 0,-0.853003 0.30053,-1.579522 0.90124,-2.180229 0.60071,-0.612721 1.33331,-0.919324 2.19832,-0.919324 z"
           transform="translate(-18.520833,51.865238)" /><path
           style="font-weight:200;font-size:2.59512px;font-family:KIRANA;-inkscape-font-specification:'KIRANA Ultra-Light';letter-spacing:0.780521px;fill:#6366f1;fill-opacity:1;stroke-width:0.243292"
           d="m 57.885167,94.84366 h -0.249131 l -0.659161,-1.819179 h -0.267297 l 0.74999,2.073501 h 0.604663 l 0.755179,-2.073501 h -0.269892 z m 2.176697,-1.819179 h -0.254322 v 2.073501 h 0.254322 z m 2.649007,0.254322 q 0.108996,0 0.181659,0.07266 0.07526,0.07266 0.07526,0.181658 v 0.124566 h 0.251727 v -0.124563 q 0,-0.210204 -0.150517,-0.358126 -0.147922,-0.150517 -0.358127,-0.150517 h -1.121091 q -0.20761,0 -0.360722,0.150517 -0.147922,0.147922 -0.147922,0.358126 v 0.145327 q 0,0.210205 0.150517,0.360722 0.150517,0.147922 0.358127,0.147922 h 1.121091 q 0.108996,0 0.181659,0.07526 0.07526,0.07266 0.07526,0.181658 v 0.145327 q 0,0.108995 -0.07526,0.181659 -0.07266,0.07266 -0.181659,0.07266 h -1.121091 q -0.108995,0 -0.181659,-0.07266 -0.07266,-0.07266 -0.07266,-0.181659 v -0.129756 h -0.254322 v 0.129756 q 0,0.20761 0.150517,0.358127 0.150517,0.150517 0.358127,0.150517 h 1.121091 q 0.210205,0 0.358127,-0.150517 0.150517,-0.150517 0.150517,-0.358127 v -0.145327 q 0,-0.210204 -0.150517,-0.363316 -0.150517,-0.147922 -0.358127,-0.147922 h -0.76037 v 0.0026 h -0.360721 q -0.108995,0 -0.181659,-0.07526 -0.07266,-0.07526 -0.07266,-0.181658 v -0.145333 q 0,-0.108995 0.07266,-0.181658 0.07266,-0.07266 0.181659,-0.07266 z m 1.784833,-0.254322 h -0.254322 v 1.240467 q 0,0.342556 0.243941,0.589092 0.246536,0.243942 0.589092,0.243942 h 0.410029 q 0.342556,0 0.586497,-0.243942 0.243942,-0.246536 0.243942,-0.589092 v -1.240467 h -0.251727 v 1.240467 q 0,0.243941 -0.168683,0.412624 -0.168683,0.166088 -0.410029,0.166088 h -0.410029 q -0.243941,0 -0.412624,-0.166088 -0.166087,-0.168683 -0.166087,-0.412624 z m 3.147268,1.357248 h 1.051024 l 0.262107,0.716253 h 0.269892 l -0.75518,-2.073501 h -0.604662 l -0.74999,2.073501 h 0.267297 z m 0.399649,-1.108117 h 0.249131 l 0.311415,0.85639 h -0.86677 z m 2.425826,-0.249131 h -0.254321 v 2.073501 l 1.671257,0.01038 V 94.85404 l -1.416936,-0.0078 z m 4.400104,1.357248 h 1.051023 l 0.262107,0.716253 h 0.269893 l -0.75518,-2.073501 h -0.604663 l -0.74999,2.073501 h 0.267298 z m 0.399648,-1.108117 h 0.249132 l 0.311414,0.85639 h -0.86677 z m 2.425827,-0.249131 h -0.254322 v 2.073501 h 0.254322 z m 3.016901,1.357248 h 1.05102 l 0.26211,0.716253 h 0.26989 l -0.75518,-2.073501 h -0.604659 l -0.74999,2.073501 h 0.267297 z m 0.399649,-1.108117 h 0.249131 l 0.31141,0.85639 h -0.866765 z m 2.794341,-0.249131 q -0.33218,0 -0.56834,0.236156 -0.23356,0.233561 -0.23356,0.560546 v 0.474907 q 0,0.332175 0.23356,0.568331 0.23616,0.233561 0.56834,0.233561 h 0.61504 q 0.32958,0 0.56314,-0.233561 0.23616,-0.236156 0.23616,-0.568331 v -0.363317 h -0.99134 v 0.254322 h 0.73961 v 0.108995 q 0,0.230965 -0.1609,0.389268 -0.1609,0.158302 -0.38667,0.158302 h -0.61504 q -0.23097,0 -0.38927,-0.158302 -0.1583,-0.158303 -0.1583,-0.389268 v -0.474907 q 0,-0.228371 0.16089,-0.389268 0.15831,-0.158303 0.38668,-0.158303 h 0.61504 q 0.22837,0 0.38667,0.160898 0.0675,0.06488 0.1064,0.150517 l 0.25692,-0.03114 q -0.0727,-0.212799 -0.25951,-0.358126 -0.2154,-0.171278 -0.49048,-0.171278 z m 4.19569,0 h -1.7543 v 2.073501 h 1.7543 V 94.84366 h -1.49997 v -0.656565 h 1.18597 v -0.254322 h -1.18597 v -0.659161 h 1.49997 z m 2.80472,0.0026 v 1.73354 l -1.50777,-1.73354 h -0.28546 v 2.073501 h 0.25432 v -1.725755 l 1.50257,1.725755 h 0.29066 v -2.073501 z m 3.33152,-0.0026 h -2.0735 v 0.249131 h 0.91089 v 1.82437 h 0.25432 v -1.82437 h 0.90829 z m 1.25803,0 h -0.25433 v 2.073501 h 0.25433 z m 1.82894,0 q -0.33217,0 -0.56833,0.236156 -0.23356,0.233561 -0.23356,0.560546 v 0.474907 q 0,0.332175 0.23356,0.568331 0.23616,0.233561 0.56833,0.233561 h 0.57353 q 0.32958,0 0.56314,-0.236156 0.22577,-0.223181 0.23356,-0.53719 h -0.24913 q -0.0104,0.2128 -0.1609,0.360722 -0.1609,0.158302 -0.38667,0.158302 h -0.57353 q -0.23096,0 -0.38926,-0.158302 -0.15831,-0.158303 -0.15831,-0.389268 v -0.474907 q 0,-0.228371 0.1609,-0.389268 0.1583,-0.158303 0.38667,-0.158303 h 0.57353 q 0.22577,0 0.38667,0.160898 0.15052,0.150517 0.1609,0.358126 h 0.24913 q -0.008,-0.308819 -0.23356,-0.534594 -0.23356,-0.233561 -0.56314,-0.233561 z m 6.240043,1.819179 h -0.096 -0.0545 l -0.41003,-1.819179 h -0.23616 l -0.48269,1.819179 h -0.0545 -0.0934 -0.0493 l -0.65916,-1.819179 h -0.2673 l 0.74999,2.073501 h 0.53979 l 0.44117,-1.663472 0.35812,1.663472 h 0.53719 l 0.75518,-2.073501 h -0.26989 l -0.65916,1.819179 z m 2.58933,-1.819179 q -0.33218,0 -0.56833,0.236156 -0.23356,0.233561 -0.23356,0.560546 v 0.474907 q 0,0.332175 0.23356,0.568331 0.23615,0.233561 0.56833,0.233561 h 0.62023 q 0.32958,0 0.56314,-0.233561 0.23616,-0.236156 0.23616,-0.568331 v -0.474907 q 0,-0.326985 -0.23616,-0.560546 -0.23356,-0.236156 -0.56314,-0.236156 z m 0,0.249131 h 0.62023 q 0.22837,0 0.38668,0.160898 0.16089,0.160897 0.16089,0.386673 v 0.474907 q 0,0.230965 -0.16089,0.389268 -0.15831,0.158302 -0.38668,0.158302 h -0.62023 q -0.23097,0 -0.38927,-0.158302 -0.1583,-0.158303 -0.1583,-0.389268 v -0.474907 q 0,-0.228371 0.1609,-0.389268 0.1583,-0.158303 0.38667,-0.158303 z m 4.52787,0.599473 v -0.238751 q 0,-0.251727 -0.18166,-0.43079 -0.17906,-0.179063 -0.43079,-0.179063 h -1.46364 v 2.073501 h 0.25432 v -0.617639 h 0.87715 q 0.0986,0.121971 0.28546,0.352936 0.18944,0.228371 0.21799,0.264703 h 0.32958 l -0.49826,-0.604663 0.11418,-0.02336 q 0.2128,-0.04152 0.35553,-0.210205 0.14014,-0.168683 0.14014,-0.386673 z m -0.25432,0 q 0,0.150517 -0.10381,0.254322 -0.1038,0.103805 -0.25432,0.103805 h -1.20932 v -0.9576 h 1.20932 q 0.15052,0 0.25432,0.1064 0.10381,0.103805 0.10381,0.254322 z m 1.89383,0.06747 h -0.36592 v -0.908292 h -0.25432 v 2.073501 h 0.25432 v -0.910887 h 0.34516 l 0.0441,0.0519 0.86418,0.858985 h 0.35812 l -1.02766,-1.025072 1.05621,-1.056214 h -0.35813 z m 4.01404,-0.916077 h -1.7543 v 2.073501 h 0.25432 v -0.910887 h 1.18597 V 93.93277 h -1.18597 v -0.659161 h 1.49998 z m 1.25802,0 h -0.25432 v 2.073501 l 1.67125,0.01038 v -0.254322 l -1.41693,-0.0078 z m 3.04606,0 q -0.33217,0 -0.56833,0.236156 -0.23356,0.233561 -0.23356,0.560546 v 0.474907 q 0,0.332175 0.23356,0.568331 0.23616,0.233561 0.56833,0.233561 h 0.62024 q 0.32958,0 0.56314,-0.233561 0.23615,-0.236156 0.23615,-0.568331 V 93.82118 q 0,-0.326985 -0.23615,-0.560546 -0.23356,-0.236156 -0.56314,-0.236156 z m 0,0.249131 h 0.62024 q 0.22837,0 0.38667,0.160898 0.1609,0.160897 0.1609,0.386673 v 0.474907 q 0,0.230965 -0.1609,0.389268 -0.1583,0.158302 -0.38667,0.158302 h -0.62024 q -0.23096,0 -0.38926,-0.158302 -0.15831,-0.158303 -0.15831,-0.389268 V 93.82118 q 0,-0.228371 0.1609,-0.389268 0.1583,-0.158303 0.38667,-0.158303 z m 4.63169,1.570048 h -0.096 -0.0545 l -0.41003,-1.819179 h -0.23615 l -0.4827,1.819179 h -0.0545 -0.0934 -0.0493 l -0.65916,-1.819179 h -0.26729 l 0.74999,2.073501 h 0.53978 l 0.44117,-1.663472 0.35813,1.663472 h 0.53719 l 0.75518,-2.073501 h -0.2699 l -0.65916,1.819179 z"
           id="path634-4"
           aria-label="VISUAL AI AGENTIC WORKFLOW" /></g></g></g></svg>
